<?xml version="1.0" encoding="utf-8"?>
<!-- Generator: Adobe Illustrator 26.3.0, SVG Export Plug-In . SVG Version: 6.00 Build 0)  -->
<svg version="1.1" id="Layer_1" xmlns="http://www.w3.org/2000/svg" xmlns:xlink="http://www.w3.org/1999/xlink" x="0px" y="0px"
	 viewBox="0 0 150 150" style="enable-background:new 0 0 150 150;" xml:space="preserve">
<style type="text/css">
	.st0{fill:#221F1F;}
	.st1{fill:#026B50;}
	.st2{fill:none;}
	.st3{fill:#EA1F27;}
</style>
<g>
	<path class="st0" d="M50.67,1726.37c-2.23,13.87-8.93,24.71-20.09,32.52c11.32,8.93,15.86,21.6,13.63,38.02
		c-1.91,14.35-8.37,25.91-19.37,34.67c-11,8.77-26.15,13.15-45.43,13.15h-68.16l29.66-167.39H4.04c15.14,0,27.26,4.58,36.35,13.75
		C49.48,1700.27,52.9,1712.03,50.67,1726.37z M-0.22,1804.45c3.59-2.95,5.78-6.82,6.58-11.6c0.8-4.78-0.04-8.65-2.51-11.6
		c-2.47-2.95-6.34-4.42-11.6-4.42H-38.6l-5.7,32.04h30.81C-8.23,1808.87-3.81,1807.4-0.22,1804.45z M-1.23,1713.22h-26.07
		l-5.27,29.65h26.08c4.78,0,8.85-1.35,12.2-4.07c3.35-2.71,5.42-6.3,6.22-10.76c0.8-4.14,0.08-7.65-2.15-10.52
		C7.54,1714.66,3.87,1713.22-1.23,1713.22z"/>
	<path class="st0" d="M164.97,1725.18h35.87l-21.04,119.56h-35.87l1.43-8.13c-9.09,7.65-21.04,11.48-35.87,11.48
		c-18.33,0-31.65-6.65-39.93-19.97c-8.29-13.31-10.76-28.66-7.41-46.03c3.03-16.42,10.56-30.57,22.6-42.44
		c12.03-11.88,26.9-17.81,44.6-17.81c14.98,0,26.14,5.34,33.48,16.02L164.97,1725.18z M102.08,1806.24
		c4.3,5.26,10.6,7.89,18.89,7.89c8.29,0,15.54-2.63,21.76-7.89c6.22-5.26,10.12-12.27,11.72-21.04v-0.24
		c1.59-8.93,0.2-16.02-4.18-21.28c-4.39-5.26-10.72-7.89-19.01-7.89c-8.29,0-15.51,2.63-21.64,7.89
		c-6.14,5.26-10.01,12.36-11.6,21.28C96.41,1793.89,97.77,1800.98,102.08,1806.24z"/>
	<path class="st0" d="M296.27,1721.83c12.93,0,23.12,4.43,30.54,13.28c7.42,8.85,9.78,20.93,7.07,36.24l-12.94,73.39H285
		l12.02-68.14c1.27-7.34,0.28-12.8-2.99-16.39c-3.27-3.59-8.01-5.38-14.23-5.38c-6.38,0-11.92,1.91-16.62,5.74
		c-4.7,3.82-7.85,9.63-9.45,17.44l-11.71,66.74h-35.94l20.98-119.56H263l-1.94,11.08C269.84,1726.64,281.58,1721.83,296.27,1721.83z
		"/>
	<path class="st0" d="M453.83,1725.18h34.72l-20.26,113.52c-3.49,20.11-11.39,34.67-23.69,43.69c-12.3,9.02-27.38,13.52-45.24,13.52
		c-28.38,0-46.95-9.65-55.72-28.94l32.04-16.74c4.62,9.4,13.39,14.11,26.3,14.11c8.61,0,15.66-2.2,21.16-6.58
		c5.5-4.39,8.97-10.74,10.4-19.04l1.47-8.23c-9.41,8.54-21.37,12.81-35.87,12.81c-18.34,0-31.8-6.34-40.41-19.01
		c-8.61-12.67-11.48-27.54-8.61-44.6c2.71-15.62,9.92-29.17,21.64-40.65c11.72-11.48,26.26-17.22,43.64-17.22
		c16.9,0,28.86,5.82,35.89,17.46L453.83,1725.18z M409.65,1809.83c7.97,0,15.07-2.29,21.28-6.88c6.22-4.59,10.28-10.53,12.2-17.82
		l0.92-5.17c0.63-7.34-1.31-13.28-5.84-17.83c-4.53-4.55-10.78-6.82-18.75-6.82c-8.45,0-15.82,2.55-22.12,7.65
		c-6.3,5.1-10.16,11.64-11.6,19.61c-1.43,7.97,0.08,14.51,4.54,19.61C394.75,1807.28,401.2,1809.83,409.65,1809.83z"/>
	<path class="st0" d="M494.24,1844.74l13.35-76.33l17.18-98.24l35.94-0.01l-17.52,100.13l-13.03,74.46H494.24z"/>
	<path class="st0" d="M664.25,1725.18h35.87l-21.04,119.56h-35.87l1.43-8.13c-9.09,7.65-21.04,11.48-35.87,11.48
		c-18.33,0-31.65-6.65-39.93-19.97c-8.29-13.31-10.76-28.66-7.41-46.03c3.03-16.42,10.56-30.57,22.6-42.44
		c12.03-11.88,26.9-17.81,44.6-17.81c14.98,0,26.14,5.34,33.48,16.02L664.25,1725.18z M601.36,1806.24
		c4.3,5.26,10.6,7.89,18.89,7.89c8.29,0,15.54-2.63,21.76-7.89c6.22-5.26,10.12-12.27,11.72-21.04v-0.24
		c1.59-8.93,0.2-16.02-4.18-21.28c-4.39-5.26-10.72-7.89-19.01-7.89c-8.29,0-15.51,2.63-21.64,7.89
		c-6.14,5.26-10.01,12.36-11.6,21.28C595.7,1793.89,597.06,1800.98,601.36,1806.24z"/>
	<path class="st0" d="M908.16,1677.35l-6.46,36.82h-43.04l-23.1,130.57h-38.12l23.09-130.57H777.5l6.46-36.82H908.16z"/>
	<path class="st0" d="M933.09,1746.64c3.5-7.79,8.85-13.71,16.02-17.77c7.18-4.05,15.22-6.08,24.15-6.08l-6.94,40.65
		c-5.26-0.8-10.56-0.63-15.9,0.48c-5.34,1.12-10.53,3.95-15.57,8.49c-5.04,4.54-8.2,10.64-9.48,18.29l0.26-1.62l-9.76,55.66h-35.94
		l20.98-119.56h35.94L933.09,1746.64z"/>
	<path class="st0" d="M1072.92,1725.18h35.87l-21.04,119.56h-35.87l1.43-8.13c-9.09,7.65-21.04,11.48-35.87,11.48
		c-18.33,0-31.65-6.65-39.93-19.97c-8.29-13.31-10.76-28.66-7.41-46.03c3.03-16.42,10.56-30.57,22.6-42.44
		c12.03-11.88,26.9-17.81,44.6-17.81c14.98,0,26.14,5.34,33.48,16.02L1072.92,1725.18z M1010.03,1806.24
		c4.3,5.26,10.6,7.89,18.89,7.89c8.29,0,15.54-2.63,21.76-7.89c6.22-5.26,10.12-12.27,11.72-21.04v-0.24
		c1.59-8.93,0.2-16.02-4.18-21.28c-4.39-5.26-10.72-7.89-19.01-7.89c-8.29,0-15.51,2.63-21.64,7.89
		c-6.14,5.26-10.01,12.36-11.6,21.28C1004.37,1793.89,1005.72,1800.98,1010.03,1806.24z"/>
	<path class="st0" d="M1174.78,1848.09c-18.97,0-33.72-6.3-44.24-18.89c-10.52-12.59-14.35-28.14-11.48-46.63
		c2.71-17.54,10.76-32.04,24.15-43.52c13.39-11.48,29.09-17.22,47.11-17.22c12.44,0,23.04,2.83,31.8,8.49
		c8.77,5.66,15.14,13.19,19.13,22.6l-32.76,17.22c-3.67-8.61-10.76-12.91-21.28-12.91c-7.97,0-14.99,2.51-21.04,7.53
		c-6.06,5.02-9.8,11.6-11.24,19.73c-1.43,8.13,0,14.87,4.3,20.21c4.3,5.34,10.36,8.01,18.17,8.01c10.2,0,18.49-4.46,24.87-13.39
		l28.94,18.41c-6.06,10.04-14.11,17.62-24.15,22.72C1197.02,1845.54,1186.26,1848.09,1174.78,1848.09z"/>
	<path class="st0" d="M1371.83,1725.18l-52.85,59.78l33,59.78h-38.26l-28.66-54.39l-9.54,54.39h-35.94l29.34-167.39h35.94
		l-17.02,97.11l42.61-49.28H1371.83z"/>
</g>
<g>
	<path class="st1" d="M129.47,95.51c0,12.95-10.51,23.45-23.45,23.45h-0.03c-1.46,0-2.89-0.14-4.28-0.4h-0.01
		c-3.42-0.63-6.57-2.01-9.29-3.95c-2.78-1.98-5.11-4.57-6.8-7.56l0.02,0.04l-7.91-13.55l-0.52-0.89l-9.75-16.79l-6.43-11.06h4.27
		c3.37,0,6.48,1.8,8.17,4.72l5.68,9.87l7.63,13.26l0.33,0.56l4.34,7.68l0.01,0.02c0.25,0.68,0.64,1.24,0.98,1.87
		c0.48,0.89,1.04,1.73,1.68,2.51l0.02,0.02c1.77,2.14,4.11,3.8,6.78,4.74v0.01c2.02,0.71,4.24,1.02,6.55,0.81
		c7.54-0.68,13.55-6.89,13.99-14.44c0.52-8.95-6.58-16.38-15.41-16.38c-5.89,0-11.01,3.3-13.61,8.15c-0.73,1.36-1.26,2.84-1.55,4.4
		l-5.11-8.9l-1.82-3.18V56.13h-8.53c-1.13,0-2.04-0.91-2.04-2.04v-4.35c0-1.13,0.91-2.04,2.04-2.04h24.41
		c1.12,0,2.04,0.92,2.04,2.04v4.35c0,1.13-0.92,2.04-2.04,2.04H92.4V76.4c3.79-2.7,8.41-4.3,13.42-4.35
		C118.79,71.95,129.47,82.54,129.47,95.51z"/>
	<path class="st1" d="M20.53,95.5c0-12.95,10.5-23.45,23.45-23.45h0.03c1.46,0,2.9,0.14,4.29,0.4c3.42,0.63,6.57,2,9.29,3.95
		c2.53,1.81,4.69,4.11,6.33,6.76l1.22,2.23l0.68,1.23l0.26,0.45l16.12,28.07h-6.29c-1.91,0-3.67-1.02-4.62-2.68l-5.21-9.07v-0.02
		c0,0.01,0,0.01-0.01,0.01l-7.61-13.25l-0.01-0.02c-0.24-0.66-0.53-1.29-0.86-1.9c-0.47-0.89-1.04-1.73-1.67-2.5l-0.01-0.01
		c-1.77-2.16-4.12-3.82-6.8-4.77c-2.06-0.73-4.34-1.03-6.69-0.8c-7.54,0.74-13.5,7.01-13.87,14.58
		c-0.44,8.88,6.63,16.22,15.42,16.22c5.89,0,11.01-3.3,13.61-8.16c0.73-1.36,1.26-2.83,1.55-4.39l5.12,8.91
		c-1.68,2.88-3.96,5.38-6.67,7.31c-3.8,2.71-8.44,4.31-13.46,4.35C31.18,119.04,20.53,108.46,20.53,95.5z"/>
	<path class="st1" d="M42.66,50.36c-1.48-1.84-2.67-3.86-3.73-5.96h8.16c-0.03,0.05-0.06,0.1-0.08,0.15
		c-1.13,1.96-2.37,3.86-3.57,5.78C43.13,50.81,43.02,50.8,42.66,50.36z"/>
	<path class="st1" d="M60.11,47.54v13.37c0,1.73-1.41,3.14-3.14,3.14H29.49c-1.72,0-3.14-1.41-3.14-3.14V47.54
		c0-1.72,1.41-3.14,3.14-3.14h7.56c1.41,2.88,2.78,5.12,4.3,7.01c0.23,0.29,0.78,0.96,1.72,0.96c1.08,0,1.62-0.86,1.8-1.15L45.64,50
		c0.95-1.49,1.93-3.03,2.83-4.6c0.19-0.33,0.37-0.66,0.54-1h7.96C58.69,44.4,60.11,45.82,60.11,47.54z"/>
	<path class="st1" d="M56.13,69.38H30.32c-0.71,0-1.29-0.58-1.29-1.29v-0.57c0-0.71,0.58-1.29,1.29-1.29h25.81
		c0.71,0,1.29,0.58,1.29,1.29v0.57C57.43,68.79,56.85,69.38,56.13,69.38z"/>
	<line class="st2" x1="62.93" y1="64.81" x2="62.55" y2="64.16"/>
	<path class="st3" d="M48.39,33.72c-1.28-1.7-3.21-2.68-5.31-2.69l-0.33,0.03c-0.3,0.03-0.6,0.06-0.89,0.1
		c-1.68,0.27-3.23,1.26-4.25,2.71c-1.02,1.45-1.42,3.23-1.12,4.9c0.33,1.76,1.03,3.36,1.6,4.56c0.19,0.4,0.39,0.8,0.59,1.19
		c1.21,2.41,2.41,4.32,3.76,6.01c0.19,0.24,0.38,0.43,0.62,0.43h0.03c0.26-0.02,0.43-0.24,0.59-0.49l0.81-1.28
		c0.93-1.47,1.89-2.98,2.77-4.51l0.08-0.15c0.91-1.61,1.63-3.3,2.12-5.03C50.04,37.51,49.65,35.4,48.39,33.72z M43.57,41.84v1.69
		h-1.03v-1.69c-1.67-0.35-2.69-1.37-3.03-3.03h-1.69l-0.04-1.02h1.72c0.35-1.67,1.37-2.69,3.03-3.04v-1.67l0.26-0.02
		c0.15-0.01,0.28-0.02,0.47-0.04l0.31-0.03v1.75c1.67,0.35,2.69,1.37,3.04,3.03h1.69l0.04,1.03h-1.72
		C46.26,40.48,45.23,41.5,43.57,41.84z"/>
</g>
<g>
	<g>
		<path class="st0" d="M2167.86,38.59c-2.45,15.2-9.79,27.08-22.01,35.64c12.4,9.79,17.38,23.68,14.94,41.67
			c-2.1,15.73-9.17,28.39-21.23,38c-12.05,9.61-28.66,14.41-49.79,14.41h-74.7l32.51-183.45h69.19c16.59,0,29.88,5.02,39.83,15.07
			C2166.55,9.98,2170.3,22.86,2167.86,38.59z M2112.08,124.15c3.93-3.23,6.33-7.47,7.21-12.71c0.87-5.24-0.05-9.47-2.75-12.71
			c-2.71-3.23-6.95-4.85-12.71-4.85h-33.81l-6.24,35.12h33.76C2103.3,129,2108.15,127.39,2112.08,124.15z M2110.98,24.17h-28.57
			l-5.78,32.5h28.58c5.24,0,9.7-1.48,13.37-4.46c3.67-2.97,5.94-6.9,6.81-11.79c0.87-4.54,0.09-8.39-2.36-11.53
			C2120.59,25.74,2116.57,24.17,2110.98,24.17z"/>
		<path class="st0" d="M2293.12,37.28h39.31l-23.06,131.04h-39.31l1.57-8.91c-9.96,8.39-23.06,12.58-39.31,12.58
			c-20.09,0-34.68-7.29-43.77-21.88c-9.09-14.59-11.79-31.4-8.12-50.45c3.32-17.99,11.57-33.5,24.77-46.52
			c13.19-13.02,29.48-19.52,48.88-19.52c16.42,0,28.65,5.85,36.69,17.56L2293.12,37.28z M2224.19,126.12
			c4.72,5.77,11.62,8.65,20.7,8.65c9.08,0,17.03-2.88,23.85-8.65c6.82-5.77,11.09-13.45,12.84-23.06v-0.26
			c1.75-9.78,0.22-17.56-4.59-23.32c-4.81-5.77-11.75-8.65-20.83-8.65c-9.09,0-16.99,2.88-23.72,8.65
			c-6.73,5.77-10.97,13.54-12.71,23.32C2217.99,112.58,2219.47,120.36,2224.19,126.12z"/>
		<path class="st0" d="M2437.03,33.61c14.18,0,25.34,4.85,33.47,14.55c8.13,9.7,10.72,22.94,7.75,39.72l-14.18,80.44h-39.38
			l13.17-74.68c1.4-8.04,0.3-14.03-3.28-17.96c-3.58-3.93-8.78-5.9-15.59-5.9c-6.99,0-13.07,2.1-18.22,6.29
			c-5.16,4.19-8.61,10.56-10.35,19.11l-12.83,73.14h-39.38l22.99-131.04h39.38l-2.13,12.15
			C2408.06,38.88,2420.92,33.61,2437.03,33.61z"/>
		<path class="st0" d="M2609.7,37.28h38.05l-22.2,124.41c-3.83,22.04-12.48,38-25.96,47.88c-13.48,9.88-30.01,14.82-49.58,14.82
			c-31.1,0-51.46-10.57-61.06-31.71l35.12-18.34c5.06,10.31,14.67,15.46,28.83,15.46c9.43,0,17.16-2.41,23.19-7.22
			c6.03-4.81,9.83-11.77,11.4-20.86l1.61-9.02c-10.31,9.36-23.42,14.04-39.31,14.04c-20.09,0-34.86-6.95-44.29-20.84
			c-9.43-13.89-12.58-30.18-9.43-48.88c2.97-17.12,10.88-31.97,23.72-44.55c12.84-12.58,28.78-18.87,47.83-18.87
			c18.53,0,31.63,6.38,39.33,19.13L2609.7,37.28z M2561.29,130.05c8.74,0,16.51-2.51,23.33-7.55c6.81-5.03,11.27-11.54,13.37-19.52
			l1.01-5.67c0.7-8.04-1.44-14.55-6.41-19.54s-11.82-7.48-20.55-7.48c-9.26,0-17.34,2.8-24.24,8.39
			c-6.9,5.59-11.14,12.76-12.71,21.49c-1.57,8.74,0.09,15.9,4.98,21.49C2544.95,127.26,2552.02,130.05,2561.29,130.05z"/>
		<path class="st0" d="M2653.99,168.31l14.64-83.66l18.83-107.67l39.39-0.01l-19.2,109.74l-14.28,81.6H2653.99z"/>
		<path class="st0" d="M2840.32,37.28h39.31l-23.06,131.04h-39.31l1.57-8.91c-9.96,8.39-23.06,12.58-39.31,12.58
			c-20.09,0-34.68-7.29-43.77-21.88c-9.09-14.59-11.79-31.4-8.12-50.45c3.32-17.99,11.57-33.5,24.77-46.52
			c13.19-13.02,29.48-19.52,48.88-19.52c16.42,0,28.65,5.85,36.69,17.56L2840.32,37.28z M2771.39,126.12
			c4.72,5.77,11.62,8.65,20.7,8.65c9.08,0,17.03-2.88,23.85-8.65c6.82-5.77,11.09-13.45,12.84-23.06v-0.26
			c1.75-9.78,0.22-17.56-4.59-23.32c-4.81-5.77-11.75-8.65-20.83-8.65c-9.09,0-16.99,2.88-23.72,8.65
			c-6.73,5.77-10.97,13.54-12.71,23.32C2765.19,112.58,2766.67,120.36,2771.39,126.12z"/>
		<path class="st0" d="M3107.63-15.14l-7.08,40.36h-47.17l-25.31,143.09h-41.78l25.31-143.09h-47.17l7.08-40.36H3107.63z"/>
		<path class="st0" d="M3134.95,60.79c3.84-8.54,9.7-15.03,17.56-19.47c7.86-4.44,16.68-6.67,26.47-6.67l-7.6,44.55
			c-5.77-0.87-11.58-0.7-17.43,0.52c-5.85,1.22-11.54,4.33-17.06,9.31c-5.52,4.98-8.98,11.66-10.39,20.05l0.29-1.77l-10.7,61h-39.38
			l22.99-131.04h39.38L3134.95,60.79z"/>
		<path class="st0" d="M3288.2,37.28h39.31l-23.06,131.04h-39.31l1.57-8.91c-9.96,8.39-23.06,12.58-39.31,12.58
			c-20.09,0-34.68-7.29-43.77-21.88c-9.09-14.59-11.79-31.4-8.12-50.45c3.32-17.99,11.57-33.5,24.77-46.52
			c13.19-13.02,29.48-19.52,48.88-19.52c16.42,0,28.65,5.85,36.69,17.56L3288.2,37.28z M3219.27,126.12
			c4.72,5.77,11.62,8.65,20.7,8.65c9.08,0,17.03-2.88,23.85-8.65c6.82-5.77,11.09-13.45,12.84-23.06v-0.26
			c1.75-9.78,0.22-17.56-4.59-23.32c-4.81-5.77-11.75-8.65-20.83-8.65c-9.09,0-16.99,2.88-23.72,8.65
			c-6.73,5.77-10.97,13.54-12.71,23.32C3213.07,112.58,3214.55,120.36,3219.27,126.12z"/>
		<path class="st0" d="M3399.84,171.98c-20.79,0-36.95-6.9-48.48-20.7c-11.53-13.8-15.73-30.83-12.58-51.11
			c2.97-19.22,11.79-35.12,26.47-47.7c14.67-12.58,31.88-18.87,51.63-18.87c13.63,0,25.25,3.1,34.86,9.3
			c9.61,6.2,16.6,14.46,20.97,24.77l-35.9,18.87c-4.02-9.44-11.79-14.15-23.32-14.15c-8.74,0-16.43,2.75-23.06,8.26
			c-6.64,5.5-10.75,12.71-12.32,21.62c-1.57,8.91,0,16.3,4.72,22.15c4.72,5.85,11.36,8.78,19.92,8.78
			c11.18,0,20.27-4.89,27.26-14.68l31.71,20.18c-6.64,11.01-15.46,19.31-26.47,24.9C3424.21,169.19,3412.42,171.98,3399.84,171.98z"
			/>
		<path class="st0" d="M3615.78,37.28l-57.92,65.52l36.17,65.52h-41.93l-31.41-59.6l-10.45,59.6h-39.38l32.16-183.45h39.38
			l-18.66,106.43l46.7-54.01H3615.78z"/>
	</g>
	<g>
		<path class="st1" d="M1910.26,119.43c0,56.53-45.86,102.39-102.39,102.39h-0.12c-6.39,0-12.63-0.59-18.7-1.75h-0.02
			c-14.92-2.75-28.68-8.77-40.58-17.25c-12.14-8.65-22.32-19.93-29.69-32.98l0.07,0.17l-34.53-59.13l-2.26-3.88l-42.57-73.29
			l-28.07-48.27h18.64c14.72,0,28.31,7.86,35.65,20.61l24.8,43.07l33.3,57.88l1.43,2.46l18.93,33.55l0.02,0.07
			c1.11,2.97,2.78,5.43,4.28,8.18c2.09,3.88,4.55,7.57,7.32,10.94l0.07,0.1c7.74,9.36,17.94,16.59,29.62,20.69v0.02
			c8.82,3.1,18.51,4.45,28.61,3.54c32.91-2.95,59.13-30.08,61.08-63.04c2.29-39.08-28.73-71.5-67.27-71.5
			c-25.71,0-48.07,14.4-59.43,35.59c-3.2,5.92-5.51,12.39-6.78,19.2l-22.32-38.83l-7.96-13.89V-52.49h-37.24
			c-4.93,0-8.92-3.99-8.92-8.92v-19c0-4.92,3.98-8.92,8.92-8.92h106.55c4.91,0,8.92,4.01,8.92,8.92v19c0,4.94-4.01,8.92-8.92,8.92
			h-32.25v88.51c16.55-11.79,36.73-18.79,58.57-18.97C1863.63,16.58,1910.26,62.81,1910.26,119.43z"/>
		<path class="st1" d="M1434.7,119.41c0.01-56.54,45.84-102.37,102.39-102.37h0.12c6.39,0,12.66,0.59,18.73,1.75
			c14.92,2.75,28.68,8.75,40.58,17.23c11.06,7.89,20.47,17.94,27.63,29.52l5.33,9.73l2.95,5.38l1.13,1.97l70.39,122.55h-27.47
			c-8.33,0-16.03-4.46-20.18-11.68l-22.73-39.59v-0.07c0,0.02,0,0.02-0.02,0.05l-33.23-57.83l-0.02-0.07
			c-1.06-2.88-2.33-5.65-3.76-8.31c-2.06-3.88-4.52-7.55-7.28-10.91l-0.02-0.05c-7.74-9.41-17.99-16.69-29.69-20.82
			c-9-3.19-18.93-4.51-29.22-3.5c-32.91,3.23-58.92,30.61-60.56,63.64c-1.92,38.76,28.96,70.81,67.33,70.81
			c25.71,0,48.07-14.43,59.43-35.61c3.2-5.92,5.51-12.36,6.76-19.17l22.34,38.88c-7.35,12.58-17.3,23.47-29.1,31.93
			c-16.59,11.82-36.85,18.83-58.76,18.97C1481.19,222.18,1434.69,175.99,1434.7,119.41z"/>
		<path class="st1" d="M1531.3-77.67c-6.46-8.04-11.67-16.84-16.27-26h35.64c-0.12,0.22-0.25,0.44-0.37,0.66
			c-4.94,8.55-10.35,16.86-15.61,25.22C1533.36-75.7,1532.87-75.73,1531.3-77.67z"/>
		<path class="st1" d="M1607.46-89.98v58.37c0,7.55-6.17,13.71-13.69,13.71h-119.99c-7.52,0-13.69-6.17-13.69-13.71v-58.37
			c0-7.52,6.17-13.69,13.69-13.69h32.98c6.14,12.58,12.12,22.37,18.78,30.62c1.01,1.28,3.39,4.2,7.52,4.2
			c4.69,0,7.08-3.76,7.84-5.01l3.42-5.38c4.13-6.51,8.41-13.25,12.36-20.08c0.84-1.43,1.62-2.9,2.36-4.35h34.73
			C1601.29-103.67,1607.46-97.5,1607.46-89.98z"/>
		<path class="st1" d="M1590.12,5.35l-112.67,0c-3.11,0-5.65-2.54-5.65-5.65v-2.48c0-3.11,2.54-5.65,5.65-5.65h112.67
			c3.11,0,5.65,2.54,5.65,5.65v2.48C1595.77,2.8,1593.22,5.35,1590.12,5.35z"/>
		<line class="st2" x1="1619.77" y1="-14.58" x2="1618.13" y2="-17.43"/>
		<path class="st3" d="M1556.32-150.29c-5.57-7.42-14.02-11.69-23.19-11.73l-1.42,0.12c-1.3,0.12-2.61,0.25-3.89,0.46
			c-7.35,1.19-14.09,5.5-18.56,11.83c-4.44,6.31-6.21,14.11-4.87,21.39c1.44,7.68,4.49,14.66,6.99,19.9
			c0.84,1.75,1.68,3.49,2.56,5.21c5.28,10.54,10.5,18.86,16.41,26.23c0.84,1.03,1.65,1.89,2.72,1.89h0.12
			c1.14-0.07,1.86-1.05,2.56-2.14l3.52-5.57c4.05-6.4,8.26-13.01,12.11-19.7l0.37-0.65c3.98-7.03,7.12-14.41,9.27-21.95
			C1563.52-133.76,1561.8-142.98,1556.32-150.29z M1535.28-114.86v7.4h-4.51v-7.36c-7.28-1.54-11.73-6-13.24-13.24h-7.38l-0.16-4.47
			h7.52c1.54-7.31,5.98-11.76,13.22-13.27v-7.31l1.14-0.09c0.67-0.04,1.23-0.09,2.03-0.16l1.35-0.12v7.64
			c7.31,1.53,11.76,5.96,13.25,13.22h7.36l0.19,4.49h-7.52C1547.01-120.82,1542.54-116.37,1535.28-114.86z"/>
	</g>
</g>
</svg>
